<?xml version="1.0" encoding="UTF-8" standalone="no"?>
<svg
   id="a"
   viewBox="0 0 414.1 243.31"
   version="1.1"
   sodipodi:docname="Logo_Anurpan_Black_1.svg"
   xmlns:inkscape="http://www.inkscape.org/namespaces/inkscape"
   xmlns:sodipodi="http://sodipodi.sourceforge.net/DTD/sodipodi-0.dtd"
   xmlns="http://www.w3.org/2000/svg"
   xmlns:svg="http://www.w3.org/2000/svg">
  <sodipodi:namedview
     id="namedview21"
     pagecolor="#ffffff"
     bordercolor="#000000"
     borderopacity="0.25"
     inkscape:showpageshadow="2"
     inkscape:pageopacity="0.0"
     inkscape:pagecheckerboard="0"
     inkscape:deskcolor="#d1d1d1" />
  <defs
     id="defs1">
    <style
       id="style1">.b{fill-rule:evenodd;}</style>
  </defs>
  <path
     class="b"
     d="M413.6,80.31h-.1l-.2-.1c-6.8-1.6-18.5,.1-25.8-.6-2.1-.2-4.4-.2-6.7-.2-1.2,0-2,.3-3.2,.1-4.1-.4-15.1-.3-19.7-.3-1.2,0-2.3-.1-3.3-.2-4.4-.3,0-1.7-5-6.3l-.2-.2c-.8-.7-1.7-1-2.6-1.4-3-1.5-7-2-10.4-2.2l-6.9,.4-4.9,1.4s-.1,0-.1,.1c-1.5,.6-3.3,.8-4.7,1.6-1.1,.6-2.9,1.1-4.1,1.1,.05-.02,.08-.04,.11-.05,0-.03,.03-.07,.09-.15l.2-.2,.2-.2c.4-.4,1.5-.7,3-1.9,1.1-.9,2-2,3.3-2.6,1.6-.7,3-.7,3.7-2.5,.4-1,.1-2.3-.7-3-1.5-1.1-4.3-.8-5.2,.6-1.8,2.7,1.5,2.1-4.7,6.4-3.5,2.5-4.2,2.2-7.8,3.7l-1.4,.4c-.6,.1-1.2,.3-1.6,.4l-2.1,1c-.3,.2-.4,.3-.7,.5,.1,1.9,1.3,1.7,2.8,2.1,.4,.1,.3,.1,.5,.1,1.2,.1,10.9-1,12.3-1.4l4.2-1.3c.7-.3,1.3-.5,2-.8,5.4-1.9,7.8-2.7,14.3-2.7,3.2,0,4.3,.4,6.7,1.7,1,.6,1.8,.9,2.7,1.8,.7,.8,1.1,2,.5,3.2-.6,.3-.3,.1-.8,.2-.6,.1,0,0-.4,.1-.7,.1,.1,0-.4,.1-.9,.2-1.5-.2-2.2-.3-2.1-.3-20.2,0-25.3,0-3.4,0-5.9-.2-8.9-.2-1.8,0-3.3,.1-4.9,.2-1.6,0-3.2-.2-4.6-.2l-72.6,.4c-1,0-1-.3-2-.2l-8.2,.1c-.6,0-1-.2-1.8-.1-4.1,.4-5.2,0-9.2,.1-1.2,0-2-.1-3.7-.1,0-1.4,.4-1.5,0-3-.2-.8-.3-.9-.8-1.5l-1-1.2-.1-.1c-2.1-2.3-3.1-5.2-4-8.2-.2-.8-.6-1.6-.9-2.6-.3-.9-.6-1.5-.6-2.8,.9,.5,1.3,1.9,1.8,2.7l5.2,5.8c1,.9,1.6,1.7,2.9,2.4,2.6,1.5,5.1,2.8,7.8,3.9,1.7,.7,3.5,1.1,5.2,1.5,3.6,.9,15.2,.9,16.8,1.5,3.4,1.2,10.9-.2,14.7-.3,2.7,0,5.9-.8,8.7-.8,3.9,0,7.5-.1,11.4,.2,2.4,.2,7.9,.4,10.1,.2,6.2-.5,5.1-1.1,8.7-1.7,.8-.1,1.5-.1,2.2-.2,.6-.1,1.5-.4,2.1-.6q.5-.1,1-.2c.8-.2,.4-.2,1.1-.3,2.9-.6,6.5-2.5,7.9-5.1,1.4-2.6,1.7-5.7,.4-8.5-.8-1.8-3.5-4.1-5.2-5.1-6.6-4-14.1-2.5-20.4,1.4-1.5,.9-2.7,2.3-4.2,3.3l-7.9,5.6c-.7,.4-1.3,.6-2,1.1l-4.6,2.5s-.1,0-.1,.1l-.8-.1c2.1-.4,3.7-2.6,5.2-3.9,1.5-1.3,2.6-2.8,4-4.1,.1-.1,.3-.2,.3-.3l5.1-5c.5-.4,.7-.4,1.3-.8,.6-.4,.6-.6,1.3-1,0-1,.1-1.7-.6-2.3-2.2-1.9-7.1-2-8.6,.4-.3,.5-.7,1.6-.8,2.3-.3,1.7-.6,3.4-1.4,4.8l-.1,.1-.1,.1c-.1,.2-.2,.3-.3,.5-1.2,2.1-3.3,3.7-5.1,5.2-.7,.6-.9,.6-1.7,1.2l-2.7,1.8c-1,.5-1.9,1.4-3.2,1.3l2.1-1.8,.1-.1c3.4-3.7,4.1-3.5,5.8-8,.5-1.2,.5-.8,.7-2.4,.3-2.1,.5-3-.1-5.2-.5-1.9-1.4-3.4-2.6-4.9-.3-.4,0,0-.4-.4l-.7-.7-.2-.2-.1-.1-1-.8c-3.9-2.5-8.9-2.5-13.3-1.9-.7,.1-1.3,.2-2,.5l-3.8,2.1c-1.8,1.1-2,1.3-3.4,2.9l-2.7,3c-.6,.7-.9,1.3-1.7,1.9l-2.2,1.4c-.7,.5-1.2,1.3-2.2,.7-.8-.5-.7-.9-1.7-.6-1.1,3.6,1.7,3.1,3,4.1-.1,.2-.7,1.3-.9,1.5l-.6,.8c-.2,.3-.4,.5-.6,.8-.2,.3-.4,.4-.6,.6l-2.8,2.7-.3,.3c-1.8,1.5-4.4,2.4-6.7,2.4-2.1,0-3.7-.7-5.3-1.8-1.5-1.1-4.1-3.7-5.2-5.3l-.8-1.2-.1-.1-.1-.1c-1-1.5-1.9-3.1-2.4-4.9-.4-1.5-1-2.5-1-4-.1-2-.2-3,0-5,.3-3.1,2.1-7.5,4-9.7l1-1.3,.1-.1,.1-.1c1.6-1.6,3.6-2.3,5.7-2.8,3.7-.8,7,0,9.7,2.7,2.4,2.3,3.2,4.7,3.2,8s-2.8,6.7-5.4,7.6c-.3,.1-.5,.2-.5,.2-1.3,.6-4.5,.1-4.8-1.6-.5-2.5,1.1-.3,2.3,.1,2,.7,3.2-.7,4-2,.5-.8,.4-.5,.5-1.5,.3-1.5,.2-2.4-.1-3.9-.1-.4-.1-.5-.1-.8l-.1-.7c-.1-.4-.5-.9-.7-1.3-.9-2.1-1.5-2.1-3.1-3.3-1-.7-3-.9-4.2-.5-2,.7-.2,2.5,.9,3.2,1.4,.9,1.4,.6,2.4,1.8-1.4,.1-2.5-.2-3.8,.2l-2.2,1.8s0,.1-.1,.1c0,0-.8,.9-1,1.8-.7,2.9-.2,6.2,2.2,7.9l3.4,1.8s.1,0,.1,.1c2.1,.8,5.1,0,6.6-.7,.7-.3,1.3-.6,2-1l2.4-2.1c1.4-1.7,1-1.1,1.8-3.1,1.1-2.9,1-7.7-.1-10.6-1.1-2.7-3.2-4.7-5.7-6.3-2.3-1.4-6-2-8.8-1.2-1.7,.4-2.9,.3-4.5,1.2-1.4,.8-2.6,1.5-3.7,2.6-.5,.5,0,.2-.7,.1,0,0,.1-.2,.1-.1,0,0,1.5-2.7,3.9-4.4,1.1-.7,1.3-1.1,2.9-1.3,3.5-.5,4.6-.7,4.2-4.5-.1-1.2-.8-2.1-2.1-2.2-3.8-.6-3.8,1.3-4.1,4.4l-2.7,1.7c-1.2,1.1-1.3,1.7-2.1,1.6,.4-.3,2.2-3.7,2.5-4.4,.5-1.3,.7-2.7,.9-4.2,.3-2.2-.4-5.8-1.6-7.7-1.5-2.3-3.2-4.7-5.1-6.7l-1.7-2.2c-.2-.4-.2-.5-.4-.8-.3-.4-.4-.5-.6-.9-2.3-.1-1.5,.8-2.6,2.2-.4,.4-.1,0-.5,.7-1.7,2.8-4,4.9-5.6,7.8-1.4,2.7-1.5,4.8-1.4,7.8,.1,2.3,1,3.9,2,5.8l.3,.5c.1,.5,.1,.4-.2,.7-.6-1.1-2.3-1.8-3.3-3.9-.4-.8-.2-1.2-.9-1.8-2.2-2.1-5.7,.1-5,3.7,.3,1.4,1.3,2,2.5,2.4,3,.9,2.4,0,5.2,2.3,1.4,1.1,2.6,2.4,3.6,4-.5-.3-.8-1-1.4-1.4-.3-.2-.5-.3-.8-.6-.3-.3,0-.1-.5-.4l-1.2-.7c-.1,0-.2-.1-.3-.1-3.8-1.9-8.4-2.2-12.3-.7l-2.6,1.4c-3,2.3-5.5,5.5-5.5,9.5,0,.9-.2,2.3-.1,2.8l1.2,4.1c1.8,3.2,3.2,4.5,6.6,6,1.2,.5,1.1,.4,2.6,.4,1.7,0,3.3,.1,4.9-.4,.7-.2,.2,0,.6-.2,2.1-1,2.9-2.3,3.7-4.4,.4-1.1,.2-2.6,.2-3.7,0-1.3-.1-1.3-.8-2.1-1-1.3-2-2-3.7-2.4-1.2-.3-1.6,.1-2.4-.6,.6-.1,.1,0,.5-.3l.2-.2c1-.8,2.2-1.4,3.3-1.9,.6-.3,1-.3,1.6-.6-.2-2-1.7-1.4-3.9-1.4-2.6,0-3.6,.6-4.9,2.3l-.1,.1c-2.9,3.6-3.2,9.1,.5,11.1,2.4,1.3,4,.4,4.4-2.2l.4,.4c.4,.5,.6,.9,.4,1.6-.1,.4-.2,.6-.5,.9l-1,.6c-2,1.1-2.2,1.3-4.6,.6-2.5-.7-2.9-1.6-4.2-3.3-.3-.4-.4-.4-.6-1-3.2-7,2.4-15.3,10.2-14.4l5.1,1.9c1.2,.7,1.9,1.5,3,2.4,.9,.8,.8,1,1.3,1.9,.3,.6,.7,1.3,1.1,1.9,.5,.8,.6,1.3,.8,1.9l.1,.2s0,.1,.1,.1c0,0,0,.1,.1,.1,0,0,.3,.3,.3,.4q.3,.5,.4,1.2c.2,.6,.2,.7,.3,1.3,.7,3.3,.4,7.7-.8,10.9-.3,.9-.4,.6-.6,1.2-.6,1.2-.1,.9-1.2,2.6l-1.3,2.3c-1.7,2.2-2.7,3.5-5.3,5l-1.2,.6c-3.1,1-3.4,1.1-6.7,.1l-3.7-1.7c-1-.7-1.9-1.6-2.8-2.5-1.2-1.1-1.8-2.3-2.8-3.5l-.1-.1c-1.5-2.1,3.1,.2,4.3-2.1,.8-1.6-.1-1.5-.1-1.6-.3-.4,.1-.4-.9-.4-.8,0-.7,.2-1.2,.3-1.8,.6-2.4,.1-3.5-1l-8.1-8.1s-.05-.05-.08-.07c-.02,0-.55-.49,0,0,0,0-.02-.03-.12-.13-.4-.3-.4-.4-.7-.7l-.8-.6c-3.3-1.6-4.3-2.4-8.3-2.7-2.4-.1-5.3-.1-7.4,.6l-.7,.3c-1.9,.9-3.6,2-5,3.6l-.6,.7-.1,.1c-2.5,3.4-3,6.3-1.9,10.6,.3,1.3,1.2,2.6,1.8,3.7,1.1,2.2,4.8,5.4,4.9,6.2-.7-.1-1.3-.6-1.9-.9l-1.6-1-.1-.1-1.7-1.1c-2.6-2.1-5.6-4.2-6.9-7.7-.9-2.4-.4-4.1-2-6.1q-.3-.4-.7-.7c-.2-.1-1-.6-1-.6-.7-.4-1.6-.4-2.5-.4-1.4,0-3.1,.6-4.2,1.5-.3,.2-.5,.5-.6,.9-.5,1.7,1.1,2.4,2.4,3.4l.1,.1,.1,.1c1.4,.9,3.2,1.9,4.2,3.3,.9,1.2,2,2.2,3,3.3,.4,.5,.6,.6,1,1l2.5,2.2,.1,.1,2.4,2.2c.1,.1,.3,.2,.4,.3,.4,.3,.9,.5,1.1,.9l-1.3-.8c-1.2-.5-2.1-1.2-3.2-1.8-.1,0-.3-.1-.4-.2l-10.1-6.9-.1-.1-2.5-1.7c-1.6-1.1-4.3-2.6-6.1-3.3-4.3-1.6-9.5-1.8-13.7,.3l-1,.6-.4,.2c-.3,.3-.4,.4-.6,.6-2.2,1.8-3.7,3.5-4.2,6.4-.3,1.9-.1,3.3,.4,4.8l2.9,3.9c.7,.5,1.2,1.3,2,1.7,1.7,.9,3.3,1.6,5.2,1.9l3.7,.7c.6,.1,1.5,.1,1.9,.2,1.1,.2,2.1,.8,3.2,1.1,4.6,1.3,16.9-.1,23.2,.3,.9,.1,1-.2,1.9-.1,.5,0,1.4,.2,2.2,.3h1.6c.5,0,1.4,.2,2,.3,1.6,.1,2.9,.2,4.5,.2,4.2,.2,11.4,1.7,15.4,.3,1.3-.4,6.2-.4,9.6-.9,3.5-.6,6.6-1.1,9.9-2.3l7.7-3.5c1.4-.9,4-3.8,5.4-5.2,2-2,2.2-2.9,3.4-4.4,.11-.11,.19-.19,.25-.28,.08-.2,.15-.38,.15-.62,0,.32-.05,.47-.15,.62-.05,.14-.11,.28-.15,.48-.6,3-1.3,3.8-1.6,4.9-.1,.4-.1,.9-.3,1.3l-.2,.6-.5,1.1c-.4,.7-.2,1-.7,1.7l-2.7,3.4c-2.1,3.2,1,4.4-4,4.4l-7.5,.1c-2,0-6.6-.4-7.9-.1l-.4,.1c-.7,.1-1.1-.2-2.1-.2h-10.7c-1.1,0-2.2-.2-2.9-.1-3.5,.4-16.5,.2-20.3,.3-1.7,0-4.8-.3-7.3-.1s-4.5,0-7.3,0l-41.7,.1c-1.7,.2-3.4-.2-4.8,0-3,.4-7.8,.3-10.8,.3l-5.8-.3c-4.4,0-4.6,1.3-4.6-2.6,0-.5,.1-.4,.4-.8l.1-.1,.1-.1c.9-1.1,1.5-1.7,3-2.2,1.3-.5,1.1-.5,2.6-.8,4.3-.7,9.3-.4,13.3,1.3,.1,0,.2,.1,.3,.1l1.2,.4s.1,0,.1,.1l2.7,1.1c1.3,.6,6.4,1.9,8.2,2.2l2.3,.4c1.3,.4,3.8,.3,5,0,.6-.2,.7-.2,1.2-.5l1.1-.9c-.6-1.9-3.1-2.3-4.7-2.9-2.7-.9-2.7-.8-5.4-2.1-2-1-3.8-2.5-5.6-3.9l-.4-.4c-.2-.2-.3-.3-.5-.5-1.3-1.7-.3-4.1-3-4.5-4.3-.7-5.7,3.2-2.2,5.1,.8,.5,1.6,.9,2.4,1.3,.9,.5,1.3,1.1,2.1,1.7l3.4,2.2c.9,.6-.5,0,.8,.7-1.2-.1-1.8-.6-2.8-1-2.7-1.1-2-.8-5-1.7-2.9-.8-5.5-1.8-8.8-1.8-1.3,0-2,.2-3,.2-2.9,.1-5.4,.8-7.8,2-1.4,.8-2.6,1.7-3.6,3-2.1,2.6,.2,4.8-2.6,5.2-2.4,.5-15.4,.2-18.9,.2-1.1,0-1.6,.2-2.8,.2H11.4c-2.2,0-8.4-.1-10.5,.6-.9,.3-.7,.1-.9,1,2,1.5,12.6,.8,16.3,.9,.3,0,.7,0,1.2-.1h3.1c1.9,0,3.2,.2,5.5,.2l88.4,.5c5.3,0,11.2,.3,16.8,.2,11.3-.3,23.1-.2,34.4-.2,2.1,0,3.7,.2,5.9,.2,2,0,3.9-.1,6.1-.2,2,0,3.8,.3,5.9,.1,.9-.1,1.8-.1,2.8-.2,1.1,0,2-.2,2.3-1,.6-1.6-.2-.7-.4-1.8-.1-.7,.6-1.5,1-2l2-2.4c0,.6-.6,2.1-.8,3.1-.5,2.5,.1,4.3,1.2,6.6,.3,.6,.1,.2,.4,.6,1.4,1.8,2.5,2.9,4.5,.9,1.5-1.5,2.7-6,2.4-8.1-.1-.8-.6-.5-.3-1.4l.8,1.3c.4,.6,.3,.3,.3,1.3s-.4,.8,0,1.7c.7,1.8,3.8,1.2,5.5,1.3,4.9,.4,22.2,.1,28.1,.1,27.6-.1,52.9-.2,80.1-.2l83.1-.7c2.2,0,13.1,.3,14.9-.1h.3c1.2-.2,1.9-.1,2.3-1.2l-.5-.2Zm-153.72-8.83c.18-.13,.42-.28,.82-.37,.06-.01,.1-.02,.15-.03l2.65-1.07c1-.4,6.8-4.2,7.4-4.7l7.1-5c2.2-1.6,5.1-3.4,7.8-4.1,4.7-1.3,4.6-1.3,8.6,0,2.1,.7,4.3,2,5.5,3.8l.9,1.5c.9,1.8,.6,3.8-.4,5.3-.6,.9-1.6,1.6-2.4,2.2-.9,.7-2.1,.9-3.4,1.3-1.6,.4-2.2,.3-3.9,.5-3.8,.5-8.8-1-10.4-1.1-2.3-.2-3-.4-5.9-.4-3.4,0-7.6,.1-10.7,1.1-.7,.3-1.2,.2-1.8,.4-.8,.2,.1,.1-.8,.3-.95,.19,.53-.16-.25-.03l-.97,.39c-.22,.16-.36,.29-.58,.23l.58-.23Zm-37.18-3.27c.5-.3,1.2-.6,1.8-.7,.8,.7,.6,1.4,2.7,2.5,2,1,1.6,.6,3.1,1,.5,.2,.1,.3,.9,.3,3.4,0,4.9-.1,8-1.3,1.2-.5,2.8-1.1,3.9-1.8l.9-.7c1.2-.8,1.9-1.8,2.8-2.9,.9-1.1,1.8-2.5,2-4.3,.2-1.8,.4-4.6-.3-5.8-.3-.5-1.4-1.2-2-1.3-4-1-5.5,2.6-4.5,4.5s2.3,1.4,3.7,2.6c-.1,.7-.3,1-.6,1.5-.6,1.1-1.5,2.3-2.5,3.2l-2.4,1.7c-2.1,1.3-7.5,3.1-9.4,1.9-1.7-.9-.3-5.5-.1-6.4,.9,.2,.2-.1,1.2,0,1.2,.2,1.8,1,4,.5,2.3-.5,2.2-2.1,1.3-2.9-.4-.3-4.8-2.4-1.8-7.2,.7-1.1,1.3-2,2.3-2.8l.6-.5c2-2,4.8-3.5,7.7-3.5l2.6,.4c.7,.1,1.7,.6,2.3,.9,1.9,1,1.8,.8,2.7,2,.7,.9,.3,.2,1,1.4l.2,.4c.2,.4,.1,0,.3,.5,.1,.3,.3,.7,.4,1.2,.3,.9,.5,1.5,.6,2.7,0,2.4-.6,3.6-1.5,5.1-.9,1.7-1.7,2.4-3,3.7-1.5,1.5-1.1,.9-1.9,1.6-.5,.5-.2,.4-.9,.9l-3.1,1.8c-.5,.3-.5,.2-1.1,.6-.5,.4-.4,.3-1,.6-1.9,.8-1.8,1-2.2,1.2l-7.9,2c-1.9,.4-3.6,.2-5.7,.1-2.8,0-1.9,.3-4.3-.2-.8-.2-.5-.2-1.1-.3-.5-.1-.6-.1-1.1-.2-2.1-.4-1.8-.4-3-1-.3-.1-.6-.2-.8-.4,1.3-1,2.9-1,5.2-2.6Zm-107.8,4.1c.8-.2,1.4-.3,2.5-.2l2.5,.2c2.2,.1,2.5-.4,3.9,.5,0,0-7.9,.2-8.9-.5Zm10.4-2c-2.7-.5-9.4-.9-11.9-.6-1.4,.2-3,0-4.2,.3l-7.9,1.1c-4.6,.7-5.9,0-9-1.9-.7-.4-.6-.4-1.2-1-1.3-1.3-2.8-3.9-2.5-5.6l.6-1.8c.8-1.2,1.6-2.5,2.8-3.2,4.7-2.8,8.2-2.6,12.7-.8,3.7,1.5,4.3,2.2,7.2,4,.3,.2,.6,.4,.8,.6,.4,.3,.5,.3,.9,.5,.5,.3,1,.8,1.5,1.1,.6,.4,1.2,.7,1.8,1.1,1.5,.9,3.9,2.9,5.8,3.9,.1,.1,.4,.2,.5,.3l.1,.1,5.6,2.8c-1.7-.3-3.1-.8-3.6-.9Zm44.3,1.3l-.4,.2c-.1,.1-.3,.1-.4,.2-3,1.1-6.5,.9-9.6,.9-1.8,0-8.6-1.1-10.4-2.1-.6-.3-.3-.2-1-.4-3-.8-6.8-2.8-9-4.9-2.1-1.9-3.8-3.2-4.8-6.1-.6-2.1-.9-3.2-.9-5.4,0-.7,.1-1.3,.3-1.9,1.1-2.9,3.2-5.2,6.3-5.8,1.3-.3,1.1-.4,1.6-.4,1.2,0,3,.3,3.9,.7l4.1,2c2.5,2,5.6,4.9,4.7,8.5l-.9,1.3-.1,.1-.1,.1c-1.4,1.2-2.3,.5-2.3,3.1,1.4,1,2.1,1.5,4.6,1.1,2.2-.4,2.3-1.2,3.5,.5,.7,.9,1.5,3,1.2,4.2-.4,1.5-1.9,1.9-3.8,1.8-2.3-.1-6.4-1.8-8.4-3.1-.3-.2-.2-.1-.5-.3-1.6-1.1-2.7-1.9-3.7-3.6l-.6-1.4c-.1-.4-.2-.5-.3-.9,1.2-.8,2-.3,3-1.2,.9-.8,1.2-1.6,.8-3-.7-2.8-3.7-2.6-5.6-1.9-3.2,1.2-1.8,7.5-.1,9.7l.1,.1,.1,.1c1.5,1.8,3.7,4.1,5.8,5.2,.6,.3,.7,.5,1.4,.8l3.5,1.2q.1,0,.2,.1c3.8,1.1,8,.5,11.2-1.5,.8-.5,.5-.1,.9-1.1,.7-1.5,.9-1.5,2.1-.4,1.1,1,2.1,1.3,3.4,1.9,.7,.4,1,.7,1.4,1-.6,.6-.2,.2-1.2,.6Zm21.5-58.7l-1.5,1.9c-1.4,2.7-1.1,3.6-1.7,5.4,0-.1,0-.4-.1-.5-.8-3.1-.4-.9-.4-4.2,0-.8-.1-.9,.2-1.6,1-2.3,.5-2.1,2.2-4.5,.9-1.3,2.5-4.4,4-4.4l3.9,5.5c1.8,3,1.9,4.3,1.9,7.5-1.1-.2,.1-1.2-2.1-3.8l-.2-.2-.2-.2c-.7-.7-.9-1.2-1.7-1.8-1.4-1.2-3.4,0-4.3,.9Z"
     id="path1" />
  <path
     class="b"
     d="M315.81,73.46c-.03,.09,.14-.05,0,0h0Z"
     id="path2" />
  <path
     class="b"
     d="M107.2,142.11l1.2,1.4c1.1,.9,2.2,2.9,3.5,4.2l5.7,6.8,.1,.1c.9,1.2,2.2,2.3,3.1,3.6l1.7,2.2c.2,.3,.1,.2,.3,.3l.2,.2,.1,.1c.7,.7,1,1.1,1.9,.7,1-.5,.7-1.8,.8-3.3,.3-2.8-.3-11.5-.2-15.7l.4-20.9c0-1.7-.4-2.3-.1-5.7,.2-2.6-1.1-4.1,2.1-7.1,1.1-1,3.6-.9,2.9-2.4-.3-.6-.8-.6-1.5-.6h-11.2c-1.8,0-2.3,.1-2.3,1.8,2.4,1.3,1.7-.3,4.5,1.8l1.1,1.3c.7,1.7,.5,4.1,.3,5.8l.1,5.5c0,3.4-.2,8.6,.1,11.7,.1,1.4,0,3.7,0,5.5v2.8c0,4.1-.2,3.6-3.7-.6l-8.1-9.9c-.4-.5-.2-.3-.5-.7l-4.6-5.5c-.3-.3-.4-.5-.6-.8-.5-.7-.7-.8-1.2-1.4l-5.4-6.8c-.4-.5-.8-.9-1.2-1.4-.5-.6-.8-.8-1.3-1.4-.5-.7-.8-.9-1.2-1.4l-1.6-2.1s-.2-.3-.3-.3c-.3-.3-.1,0-.4-.4-3.7-5-2-3.3-12.6-3.3-.9,0-1.9-.3-2.3,.4-.4,.6-.2,1.9,0,2.4,.3,.3,3.2,.8,4.6,1.9l.3,.3,.4,.4c.5,.6,.6,1.1,.6,2.2v29.2c0,.9-.2,1-.2,2v6.7c0,2-.3,3.3-1.6,4.6-.2,.2-.2,.3-.5,.5-.5,.4-.6,.4-1.2,.4l-1.2,.2c-1.6,.8-.3,.9-2.4,.3-1.4-.4-1.5-.4-2.6-1.2-.9-.7-1-1-1.7-1.9-2-2.5-2.8-5.9-4.2-8.7-1.2-2.4-1.1-1.7-1.6-3.7l-1.8-4.6v-.2c-.1-.3-.4-.6-.6-1.2l-3.4-9.2c-1-2.1-2-4.5-2.6-6.7l-7.2-18.7c-.4-1-.3-.4-.7-1.3-.3-.6-.6-1.9-.9-2.8-.2-.6-.3-.7-.5-1.3l-.9-2c-.9-2.3-1-3.2-2.1-4.6-2.1-.1-4.8,2.3-7.5,3.4l-5,1.7c-1,.3-2.1,.4-2.3,1.5-.1,1.3,1.1,1.4,2,1.7,2.1,.7,3.1,1.3,2.6,3.8-.2,1,.1,.1-.2,1.2l-1.4,4.1c-.1,.4-.3,.8-.5,1.4l-3.4,9.2c-.3,1-.6,1.8-.9,2.7-.3,.9-.5,1.5-.9,2.5-.3,.6-.2,.8-.4,1.4-.3,1-.7,1.4-1,2.7-.5,1.8-2.2,5.9-2.9,7.8l-3.2,8.4c-.2,.6-.1,.2-.3,.7l-.5,1.3c-.1,.4-.4,.8-.6,1.3-.1,.2-.1,.3-.2,.6l-2.1,5.8c-.2,.5-.4,.7-.7,1.1-2.4,3.3-4.1,2.4-6.5,4,.1,2.1,1.9,1.6,4.1,1.6h10.5c1.5,0,4.8,.4,3.9-1.5-.3-.7-.8-.7-1.5-.8-1.5-.3-2.3-.8-2.9-2.3-1.4-3.2,.9-6.8,1.7-9.8l.9-2.4c.5-1.9,1-3.2,3-3.2,6.6,0,16.6-.8,22.6-.3,1.1,.1,1.2,1,1.5,2l1.2,2.9c.4,1,.6,2,1,3.1,.9,2.4,3.5,8.6-.9,10-.8,.2-1,.1-1.4,.6-1.3,2.2,3.6,1.6,4.6,1.6,4.8,.2,9.8,.1,14.6,0,1.2,0,2.1-.2,3-.1,2,.1,1.2,.3,2.7-.6,1.8,.8,.3,.6,3,.6l4.3,.1c3.2-.2,7.2,.8,6.9-1.7-.2-1.5-3.2-1.2-4.1-3.9-.2-.6-.7-2.6-.7-3.2,.2-5.1-.3-9-.3-14.4l-.2-18.1,4.7,5.2c.4,.5,.5,.8,1.1,1.4l7.2,8.4c.5,.5,.8,.8,1.3,1.3l2.3,2.8c.2,.2,.3,.4,.5,.7l3,3.5c.2,.2,.3,.4,.5,.7Zm-56.8-5.8c-.8-.3-7.1,.2-10.3-.1-1-.1-2.1,.2-3.2,.2l-3.2-.2c-2.4,0-5.2,.5-5.2-.6-.1,0,.3-.5,.6-1.5,.5-2.1,1.3-3.6,2.1-5.8,.1-.4,.3-.7,.4-1l1.7-4.9c.2-.5,.4-1.3,.6-1.8l4-11.6c1.2-2.6,.3-2.2,1.6-2.8l5.2,13.4c.2,.5,.2,.6,.4,1l4.7,12.1c.3,.8,.6,1.1,.8,1.9,.2,.9-.1,1-.2,1.7Z"
     id="path3" />
  <path
     class="b"
     d="M148.6,110.71c.1-.8,.3-1.2,.7-1.7,.6-.7,2.2-1.1,3.4-1.2,.2-2.5,.8-1.8-6.6-1.8h-8.7c-1.1,0-1.8-.2-2.6-.2-1.5-.2-1.8,.1-2.6,.4,.2,.6,.1,.8,.7,1.3,.5,.3,.9,.4,1.4,.4,.4,0,1.1,.2,1.6,.6l.1,.1,.1,.1c1.1,1.1,1.3,1.4,1.4,2.8,.6,8,.3,20.2,.3,28.2,0,2,.4,5.1,.9,6.7,.6,2.4,2,6,3.9,7.7l.4,.3,.1,.1,3.6,2.9c.5,.3,.7,.3,1.2,.6,.8,.4,.4,.4,1.3,.7,2.1,.7,3.8,1.3,6.2,1.6,4.2,.4,7.5,.1,11.5-1.2,.4-.1,1.1-.5,1.4-.6,1.3-.6,2.8-1.2,3.9-2.2l.3-.3c.4-.5-.1,0,.5-.5,1.4-1.2,2.5-2.5,3.4-4.1,.4-.6,.9-1.9,1.2-2.6,2.4-6.7,1.7-25,1.7-32.7,0-2.5-.2-5.2,.9-6.8,1.2-1.7,4.7-1.2,4.8-2.6,1,.7,.5,1,2,1.3,1.4,.3,2,.3,2.8,1.2l.2,.2,.1,.1c1.5,1.8,1.1,6.1,1.1,8.4,0,.9,.1,1.4,.2,2.1,0,.9-.2,1.2-.1,2.2,.2,3.2-.1,7.3,.1,8.8l-.1,9c0,3.6,.4,7.9,.1,11.7-.1,1.5-.1,3.3-1.1,4.5-1.5,1.7-3.3,.9-4,1.9-.4,.5,0,.6,.2,1.5l5-.1c1.6,.2,3.6,.1,5.4,.1h7.9c1.4,0,1.6,.1,2.5-.4,0-2.8-2.6-.3-4.9-3.1-1.2-1.5-.8-5.7-.8-7.7,0-2.8-.3-5-.3-7.8,0-1.1-.2-1.2,.5-2,.3,.2,1.5,.4,2,.6,.7,.3,1.2,.7,1.7,1.1l3.2,3.1,.2,.2,.1,.1,6.9,9.3c1,1.6,2.3,3.1,3.6,4.6,1.7,2.1,5.1,5.6,8.5,7l3,1.3c6.8,2.3,4.1,1,9.9,1.7,2.4,.3,8,.2,10.8-.1,1.5-.2,3.8-.9,5.1-1.4,1.5-.5,2.5-.3,2.5-2.4-2-.9-3.4,.3-5.4,.6-6.3,.7-2.1,1-10.2,0-4.5-.6-7.6-3.6-10.8-6.4-1.6-1.4-3.6-3.6-4.8-5.5l-.1-.1-.2-.2-.1-.1-1.7-2.2c-2-2.4-3.3-4.8-5.6-7-1.3-1.2-2.3-3.4-3.9-4.3-.4-.2-1.1-.7-1.4-.7,.9-.5,3-.9,4.2-1.3l3.8-1.8c1.5-.7,2.9-1.6,4.2-2.7,2.4-2.1,3.9-4.7,4.5-7.8,.3-1.7,.1-5.9-.4-7.1-.3-.8-.4-1.2-.8-2-1.6-2.8-3.5-4.7-6.2-6.4l-1-.5c-5.3-2.3-8.9-2.1-14.6-2.1-1.6,0-4.3-.3-5.5-.2-2.8,.3-5.3-.1-8.1,0l-4,.2c-1.3,0-3.4-.2-4.5-.1-1.5,.1-.3,.7-2.4,.2-.3-.1-.8-.1-1.1-.2-3.1-.2-9.4,.1-13.1,.2-.3,.8-.2,.6-.2,1.5,1,.5,2.4,.5,3.1,.9,.5,.3,.6,.5,1,1,1.1,1.2,1.1,2.4,1.2,4,.1,1.1-.1,2.6-.1,3.9,0,5.2,.2,10,.2,15.6,0,2.9-.2,5.6-.2,8.3,0,1.7-.5,6.5-1.3,8l-.8,1.6c-.2,.3,0,0-.2,.4-.7,1.1-1.9,2.1-2.4,2.5l-2.1,1.5c-.9,.7-2.4,1.2-3.6,1.5-1.9,.4-5.3,.1-7.2-.1-1.4-.1-4.5-2.1-5.4-3-3.1-3.1-3.4-7-3.6-11.4,0-.9-.2-1.1-.2-2v-27.8s.3-1.5,.3-1.9Zm53.1-1.3c.8-.4,7.4,0,9.2,.4l1.8,.6s.1,0,.1,.1c1.6,.6,1.6,.9,2.8,1.5,.5,.3,.2,0,.7,.3,.4,.3,0,0,.3,.3l.2,.2,.1,.1,.1,.1,.3,.3c.8,1,1.2,1.2,1.8,2.2,1.7,2.6,1.8,6.8,1,10-.2,.6-.2,.9-.5,1.5l-.7,1.5c-.6,1-1.9,2.5-2.7,3.2l-.8,.6c-1,.7-1.9,1-3,1.5-1.9,1-1.4,.5-2.9,.9-2.7,.6-4.8,.5-7.5,.5-1.1,0-.9-1.5-.9-2.6v-10.1c.3-2.7-.8-11.4,.6-13.1Z"
     id="path4" />
  <path
     class="b"
     d="M395.7,105.61h-12.8c-1.3,0-1.5-.1-2.3,.4-.4,1.3,.5,1.7,1.6,2.1,.4,.1,1,.2,1.5,.4,.3,.1,.3,.2,.6,.4l1.1,.7c2.2,1.6,1.7,6.2,1.7,8.7,.2,8.8,0,17.6,0,26.4-.7-.3-1-.8-1.6-1.3l-1.1-.9-.1-.1c-1.8-1.8-3.4-3.9-5.3-5.7-.3-.3-.7-.7-1-1l-1-1.1c-.7-.8-1-1.5-1.8-2.3l-9.8-10.7-.1-.1-1.8-2.1c-.5-.6-.6-.5-1-1l-1.9-2.2c-.8-1-1.4-1.8-2.4-2.6l-2.3-2.6c-1.2-1.6-2.6-2.9-3.9-4.3-.9-.9-1.3-1-3.1-1-1.4,0-2.7-.2-3.9-.2-1.8,0-3.8-.2-5.6,.1-.8,.1-1.2,0-1.5,.7-.8,2.1,3.9,1.4,5.8,4.9,.2,.4,0-.2,.2,.4,0,.1,.2,.8,.2,.8,.1,1,.3,2.6,.1,3.6-.3,2.8-.1,20.9-.1,24.7l-.1,11.7c0,.2-.2,.4-.2,.8-.4,1.3-.8,2.2-1.9,3.1-1.9,1.5-5.8,1.2-7.5-.5-.7-.7-1.3-1.5-1.9-2.4-.2-.4-.4-.9-.6-1.4-.3-.6-.4-.8-.6-1.4l-8.9-21.3s0-.1-.1-.1l-.1-.3c-.2-.5-.4-1.1-.6-1.5-.2-.6,0-.2-.3-.7-1.1-2-1.6-4.4-2.7-6.5-.5-1-.6-2-1.1-3.2l-5.2-12.3c-.4-1.1-.5-2.2-1.7-2.4-1.6-.3-4.4,1.9-5.7,2.5l-5.6,2.1c-1.3,1.6,.9,1.8,1.5,2.1,.7,.5,2.3,1.7,2.3,2.4,0,1.3-.1,1.2-.4,2.4l-8,20.6c-.7,1.7-1.1,3.8-1.8,5.5-.8,2-1.8,4-2.5,6l-.7,1.6c-.2,.6-.4,1-.6,1.6-.3,1-.8,2-1.2,3l-1.6,2.9c-.7,.9-1.4,1.4-2.4,1.8-1.4,.5-2.5,.4-2,2.2,.7,1,8.6,.6,10.6,.6,1.2,0,2.3,.1,2.7-.8,.6-1.6-1.3-1.4-2.1-2l-.4-.4c-1.8-2.1-.3-5.2,.5-7.1,.9-2.1,1.5-4.5,2.4-6.5,.7-1.5,3.2-1.1,4.7-1.1,1.6,0,15.6-.3,16.5,.3l1,1.6,.1,.1s0,.1,.1,.1c.8,1.9,1.2,3.7,2.4,6.3l.9,2.9c.2,.7,.4,1.5,.3,2.3l-.3,.7c-.8,1.5-2.9,.9-3,2.8,.2,.2,.1,.1,.4,.3,.4,.2-.1,0,.5,.2,2.3,.6,10.2,.2,13,.2h4.7c1,0,1.5-.2,2.2-.2,2.7,.2,9.9,.4,12.4,.1,1-.1,3.9,.2,4.1-1.1-.1-1.5-1-1.3-2.6-1.6-3.6-.7-4-5-4.1-8.3l-.4-17.2c0-4.5-.4-9.1-.4-13.5,1,0,.9,.2,1.5,.9l2.5,2.8c.5,.5,.9,.8,1.4,1.4,.4,.5,.8,.9,1.2,1.5,.3,.5,.8,1,1.2,1.4l9.2,10.3,.4,.4,2.4,2.7c2.8,3.1,5.8,6,8.5,9.4l2.6,2.8c1.1,1.4,2.7,2.7,3.8,4.1l.3,.3,1.6,1.8c1.4,1.3,2.6,4.4,5.6,4,.9-1.8,.6-6.9,.6-9.2v-10.3c0-7,.5-13.1,.6-19.9l.1-4.5c.2-2.1-.6-6.1,1-7.6,1.4-1.4,2.5-1.6,4.4-2.3,1.3-.5,1.9-2.2-1.3-2.1Zm-89.4,33.6c-2-.2-7.2-.1-8.8-.5,0-1,1-3.5,1.4-4.6,1.2-3.4,2.7-6.8,4.1-10.1,1.1-2.7,1.9-5.6,2.6-7.5,.2-.5,.5-.7,.7-1.1,1,1.4,.6,.4,1.3,2.9,.9,2.9,2.3,5.4,3,7.3l1.2,3c.3,.7,.4,.8,.6,1.5,.3,1,.8,1.9,1.2,2.9l1.4,4.3c.3,.8,.4,.8,.4,1.5-1.2,.7-7.6,.4-9.1,.4Z"
     id="path5" />
  <path
     class="b"
     d="M274.8,210.61l-13.9-.1c-2.5,0-4.6,.2-6.9,.2-1.2,0-2.3-.3-3.9-.2-3.6,.2-7.2,0-11.1,0l-15.8,.2c-5.7,0-8.9-.2-14,2.1l-1.4,.7c-.2,.1-.4,.2-.7,.4l-3.1,2c-1.3,.8-2.5,1.5-3.4,2.7-.6,.9-1,.9-1.3-.3-.4-1.8-.7-3.8-2.1-5.1-1.3-1.3-2.5-.6-3.4,.7-2,3.1-1,4.5-2.2,5.6-3.1-2.8-.2-1.1-5.7-4.8-.4-.3-.5-.3-.8-.6-.2-.1-.3-.2-.5-.3l-1.5-.8c-6.5-2.6-8.1-2.1-14.8-2.2l-24.3-.2c-1.4,0-2.5,.2-4,.2h-11.6c-3.9,0-9.8-.1-13.8,.3-2,.2-1.6,1.4,0,1.6,3.2,.4,18.4,.4,21.9,.4l4.5,.2c.4,0,1-.1,1.2-.1l7.9,.1c2.3,0,9.7-.4,11,.3-.6,.3-1.2,0-2.3,.7-.9,.6-.8,.9-1.9,.9-1.3,0-6.4-.3-7.3,.4-1.2,.9-4.6,1.4-7.3,3.2-1.5,1-3.9,2.2-5.1,3.5-.8,.8-.7,1-.3,1.7,1.5,.5,2.9,0,4-.9l3.1-1.7c2.3-1.1,4.4-2.3,7-2.9,.2,.5,.1,.4-.3,.6-1.5,.8-2.3,2.1-1.6,3.8,.5,.1,.9,.3,1.4,.3,.7,0,.3,0,.9-.4,1.1-.7,2.6-1.1,3.8-1.4,3.9-1,6.4-1.5,9.8,1.2l3,2c1.5,1.2,2.4,1.1,3.7,2.7,.1,.12,.16,.18,.19,.23-.06-.07-.13-.16,0-.03,1.2,1.3,2.4,2.2,4.1,3,3.8,1.8,8,1.4,10.9-1.5l1.8-1.8c.5-.6,.5-.8,1.1-1.1,.7-.4,1.3-.8,1.9-.3,.9,.8-.5,2.9-1.2,3.4-.6-.3-1-.9-2-.2l-.7,1c-.06,.26-.1,.34-.12,.35,.02,.07,.07,.25,.12,.65,.9,.4,.6,.5,1.5,.2-.1,.8-.5,1-1.1,1.4-1.2,.7-1.7,1.8-1.5,3.4,0,.3,.2,.8,.3,1,.4,.7,.2,.5,.8,.6l.5,.1c1.2-.1,1.5-1.2,2.4-1.7,.4,.6,.5,1.5,.9,2.3l2.3,3.8c.7,1,.5,1.1,2,1.2,1.1-1.3,2.7-2.7,3.2-4.3,.2-.7,.3-1.1,.6-1.7,.9,0,1,.4,1.7,.7,.8,.3,1.1,.1,2.1,.1,.3-.7,1.1-1.7,1-2.7-.1-2.1-1.4-1.9-3.3-4.1l-1.3-2.1c.5,0,.2-.3,.7,.3,2,2.5,4.4,1.5,3.4-.5-.5-1-.5-.2-.9-.7-.4-.5-.5-.8-.2-1.3,.5,.4,.9,.9,1.4,1.4,.5,.6,.6,.9,1.2,1.4,3.1,2.6,8,2.8,11.5,.5,2.2-1.4,4.1-3,5.9-4.8,1.1-1,1.9-1.4,3.1-2.2,.5-.3,.9-.7,1.6-1l1.8-.8c3.3,0,5.9,.5,8.7,1.8l1.7,.7c.6,.3-.4,.2,.9,.3,.7,.1,1.3,0,1.7-.2,1.8-3.7-2.2-4.3-2.6-5.1l1.7,.7c1,.2,2.3,.3,3.1,.7,2.9,1.3,5.8,3.6,8.9,4.3,2.6,.6,3.1-1,.6-2.7l-6.1-3.8c-3.1-1.3-2.9-1.3-7.1-2.2l-4.9-.5c-3.6,0-2.9-1.4-5.8-1.4,1-.2-.4-.4,1.5-.4,.7,0,1.4,.1,2,.1l16.6-.3,4-.7c5.4-.6,20.1,.3,23.7-.2,.9-.1,1.8-.1,2.5-.6l.4-.4c0-.1,.1-.1,.1-.2-1.5-.9-4.5-1-6.2-.8Zm-96,12.3c-3.2-1.3-2.3-1.9-2-3.1,2.9-1,3.2-1.4,5.6-.1,2.5,1.3,.2,4.6-3.6,3.2Zm9.1-.7c-1.5,3.7-.3,1.1-1.9,3.6-1.2,1.8-5.7,3.4-7.9,2.4l-2.4-1.4c-.6-.5-1.2-.9-1.8-1.5-1.7-1.6,.3-1-3.3-3l-.1-.1-1.7-1.1c-.4-.3-6.9-4.9-6.3-5.1,.3-.7,.7-.6,1.4-1.1,.5-.4,.6-.8,1.1-1.1,.5-.4,1.1-.5,1.6-.5,6.6-.4,8.1-.5,14.1,1.7,.7,.3,1.1,.8,1.8,1-4.5,.3-9.5,.1-9.5,5.8,0,1.8,2.1,3,3.7,3.5,.8,.3,1.1,.5,2,.5,2.4,.1,5.9,.6,7.3-2.3,1-2.1,.5-1.8,.5-3.9l.8,.5c.5,.4,.9,1.3,.6,2.1Zm8.7,1.4c-.3,.4-.2,.2-.7,.4-.5-.5-.9-1.2-1.3-1.6,.3-.6,.8,0,1,0,1.1,.5,.8,0,1.4,.4l-.4,.8Zm3.3,4.5c-.1-.1-1.8-2.9-.1-2.9,.9,0,.1,2.9,.1,2.9Zm27.1-9.8c-1,1.4-3.1,2.3-4.5,3.2-.9,.6-1.3,1.1-2.7,.9-.7-1-.4-3-3-4.8-2.2-1.5-6-1.7-7.9-1.1-.5,.2-.9,.6-1.4,.9-1.2,1.6-1.5,1.9-1.3,4.7,.2,1.8,.6,3.3,2.2,3.8,1.1,.3,4.3,.1,5.1-.1,2.7-.9,2.6-2,3.9-1.9,1.3,1.9-1.6,3.5-3.1,4-1.8,.7-4.4,.5-5.7-.3-2.2-1.4-3-2.3-3.3-4.8-.3-2.8,.1-3.4,1.5-4.6l.7-.8c.3-.4,0,0,.3-.3,1-.9,2.3-1.8,3.5-2.3l.3-.1c2.8-1.1,7.4-1.8,10.5-1.5,4,.4,2.8,.1,6,2.7,.4,.3,.7,.4,1,.8-.8,.7-1.4,.6-2.1,1.6Zm-11.5,3.3c-.6,.6-.4,.7-1.4,.9-1.5,.3-1.9,.6-3.6,0-.5-.2-1-.5-1.3-.8-.1-1.1,.1-1.4,.9-1.9,.7-.4,1.5-.4,2.1-.4,2.7,.2,2.3,.5,3.3,2.2Z"
     id="path6" />
  <path
     class="b"
     d="M187.68,230.35c-.03-.1-.03,.01,0,0h0Z"
     id="path7" />
  <path
     class="b"
     d="M259.1,140.61c3.1,0,5.3,.8,8.3,.6,2.7-.1,5.1-.8,7.2-1.5,1.4-.5,1.7-.8,3-1.5l2.6-1.9c1.9-1.4,4.5-4.4,5.4-6.8,.1-.2,.1-.3,.2-.4l.2-.4c1-2.5,1.2-8.9,.6-11.2-.3-1.2-.8-2.1-1.4-3.1l-1.1-1.5c-1.1-1.6-4-4.1-5.9-4.9-1.1-.5-1.7-.9-3.2-1.3-4.7-1.3-7-1.2-11.5-1.5-2.8-.2-5.5-.1-8.5-.1h-7.7c-.8,0-1.4,.1-2,.1-1.3,.1-4.9-.6-5.1,1.6,1.8,1,3,.3,4.5,2.1,1.4,1.7,1.1,2.7,1.1,5.5v24.7c0,3.8,.2,8.3,.1,11.7-.1,2.2,0,5.5-2.8,6.3-.6,.2-.8,.1-1.4,.2-.5,.1-.8,.3-1.1,.5-.1,1.8,.6,1.6,4.5,1.6,4.1,0,10.6-.1,14.5,.1,.2,0,.7,0,1-.2,.5-.4,.4-.6,.6-1.2-1.9-1.1-2.2-.6-3.2-1.1-.1,0-.5-.4-.6-.4-2.3-2.4-1.5-5.8-1.5-10.8,0-1.4-.1-3.1,0-4.5,.1-1.6,1.2-.7,3.2-.7Zm-3.1-31.3c.6-.5,.9-.3,1.7-.3,4.7-.1,2.6-.8,9.3,.8,1.6,.4,1.5,.6,2.7,1.1l1.1,.5,.1,.1c.8,.4,.4,.2,1,.8,2,2.2,2.3,2.2,3.7,5,.7,1.4,.7,4.3,.6,5.7l-.2,3.3c0,.1-.1,.8-.1,.9l-1.2,3.6c-.2,.3-.3,.4-.4,.6-.1,.2-.2,.3-.3,.5l-1.1,1.5c-1.1,1.5-3.6,3.1-5.1,3.6l-4.3,.9c-1.4,.3-6.5,.4-7.5-.3v-28.3Z"
     id="path8" />
  <path
     class="b"
     d="M243.5,191.71c0,4-1.3,1.8-.8,4.8,1.1,.3,5,.4,6.6,.4h3.6c1.1,0,2.8-.1,3.5-.4,.4-.9,.9-2.7,.4-3.8-1.5-.7-1.4,.4-2.3,1.1-1.4,1.1-4.5,.6-6.1,.5-1.3-.1-.9-.6-.9-2,0-2.4-.1-2.7,.2-5,1.4,0,1.9-.1,3.4,0,1.5,.1,.9,1,2.4,.8,.4-.1,.5,0,.6-.5,1.5-6-2.3-2.9-3.2-2.8-1.4,.1-2.6,.3-3.3-.3-.1-1.4-.1-2.8-.2-4-.2-2.9,.8-2.3,5.3-2.3,1.3,0,1.2,1.7,3.1,1.6,1.4-6.1-.8-4.2-7.4-4.2-4.1,0-8.1-.7-5.6,2.2,1.2,1.4,.7,5.4,.7,8v5.9Z"
     id="path9" />
  <path
     class="b"
     d="M221.5,196.61c1.2,0,2,.2,3.2,.2,2.3,0,4.4-.2,6.8-.2,.6-1,1.2-2.9,.7-4.4-1.4-.6-1.7,.6-2.4,1.5-.8,.9-1.6,.6-3.2,.6-4.8,0-3.7,1.1-3.8-7.4v-6.9c0-1.7,1.2-2.8,.9-4.2-1.4-.7-5-.1-5.1,0-1.7,.6,.4,1.8,.4,4.3l-.1,13.4c-.3,2.5-2.2,3.2,2.6,3.1Z"
     id="path10" />
  <path
     class="b"
     d="M285.6,194.91c-.7-.3-.7-.2-1.3-.7,0,0-.2-.1-.2-.2l-.4-.2c-.3-.2-.2-.1-.6-.5l-2.7-3.3c-.4-.6-1.2-2-1.5-2.3,.3-.5,.5-.6,.9-.7l.5-.1c.2-.1,.4-.2,.6-.4,1.8-1.1,2.8-2.4,3-4.7,.1-1.6-1.1-3.9-2.2-4.8l-1.9-1c-.2-.1-.6-.1-.8-.2-1.5-.4-3.6-.5-5.3-.4-1,0-1.2,.2-2,.2-1.5,0-4.5-.5-3.6,1.6,.5,1,.9,1.1,.9,3.4v13.5c-.1,.8-.5,.9-.4,1.5,0,.2-.5-.2,.3,.7,.5,.6,5.2,.8,5.4-.4v-.1l-.6-.8c-.7-1-.4-2.8-.3-4.1,.1-1.4-.3-1.9,.4-2.7,.8,.3,.4,.4,1.3,1.2,1.1,1.1,2.4,3.3,3.6,4.7,1.6,2.1,2.5,2.6,5.3,2.7,.9,0,1.8-.1,2.3-.7q0-.9-.7-1.2Zm-7.6-10.4c-.7,.7-1.4,1-2.5,1.1-1.2,.3-1.7,.3-2.3,0,0-1-.2-6.5,.1-7.1,.5-.9,4-.8,5.2,1.2l.2,.2c.1,.3,.1-.1,.2,.6,.1,.4,0,1.3,.1,1.8,0,.7-.5,1.7-1,2.2Z"
     id="path11" />
  <path
     class="b"
     d="M194.5,196.11c2,.7,1.4,.4,3.9,.4,2.7,0,7.5,.2,9.1-.1,1-.2,1.6-3.4,.6-3.9q-.2-.1-.5-.1c-1.3,.1-.9,1.8-3,2-1.7,.1-4.1,.2-5.2-.4l-.1-15.2c.1-2.1,1.2-3.3-1.4-3.3-.8,0-2-.1-2.5,.2-.8,.5-.5,1-.3,1.6,0,.9,.1,1.5,.1,2.4v10.9c0,1.4,.3,1.4,.1,2.8-.2,1.6-.9,.6-.8,2.7Z"
     id="path12" />
  <path
     class="b"
     d="M118.1,196.81l1.5-.1c1.4-.3,1.4-1.2,1.7-2.5,.2-.9,.1-1-.3-1.8-3.2,0,.6,2.9-9.5,1.8-.6-3.9,0-2.7,0-6.6,.7-.5,2.4-.6,3.4-.5,2.2,.1,3.2,3.6,3.4-.9,0-.6,.3-2-.7-2h-.3c-.8,.1-.4,.5-2.3,.5-3.7,.1-4,1.7-3.5-5.4,.1-1.6,.7-1.3,2.7-1.3,5.9,0,3.4,1.7,5.7,2,.2-.3,.5-.4,.7-1.1,.9-4.6-3.4-3.6-8-3.5-1.1,0-1.9,.2-3,.2-1,0-2.4-.2-3,.3-.3,.2-.3,.5-.1,1.1,.5,1.3,.6-.1,.8,2.3,0,.1,0,.3,.1,.4h0c.1,.1,0,.1,0,0v13c0,.4,0,.7-.1,1-.2,.8-1.9,1.7-.7,2.8,.6,.6,7.5,.2,8.9,.1,1.1,0,1.4,.2,2.6,.2Z"
     id="path13" />
  <path
     class="b"
     d="M307.1,177.21c.2,.5,.5,.4,.3,1.3-.2,.6-2.5,4-3,4.7l-1.4,1.4c-1.2-.8-1.3-1.4-1.9-2.5-.1-.2-.2-.3-.3-.5-.4-.6-.5-1-1-1.6-.3-.4-.9-1.3-1.1-1.7-.8-1.4,.1-3-2.5-2.8-1.2,.1-1,.2-2.2,0-1.6-.1-1.4,.1-2.3,.7,.4,2.1,1.6,1.6,2.6,3.2l4,5.9c1.9,2.4,2.1,3.2,2.1,5.7,0,1.5,.1,2.3-.3,3.5-.7,2-.1,2.5,3.4,2,.7-.1,.6-.2,1.3-.4,.1-3-1.8-6.3,1.4-10.9l.3-.3,3.4-5.1c1.8-2.8,2.4-1.5,2.6-3.7-1.1-.6-.8-.6-2.5-.6-1.5,0-3.8-.3-2.9,1.7Z"
     id="path14" />
  <path
     class="b"
     d="M93.2,175.61c-2.4,0-3.5-.4-3.6,.9-.1,1.1,.2,.9,.4,1.1l.4,.4c.6,1,.3,14.6,.3,15.7,0,.8-.2,1.8-.5,2.3-1.1,2.2-2,1.9-2.9,.7-.7-.8-1-.7-2.4-.6-.2,.7-.7,1.2-.6,2.1,.1,.8,.7,1.3,1.4,1.6,1.3,.4,3.7,.5,5-.1,1.1-.5,1.8-1,2.4-1.9,2.1-3,1.3-10.6,1.3-14.6,0-1.2,.1-4.2,.5-5,.2-.5,.4-.6,.6-.9,.8-1.6-1.1-1.7-2.3-1.7Z"
     id="path15" />
  <path
     class="b"
     d="M168.8,196.41c1.5,.7,2.7,.1,5.8,.4,.1,0,7.6-.1,8-.4,1-.6,.9-3,.7-3.9-2.4-.7-.3,1.9-4.6,1.9-1.2,0-1.8-.2-2.6-.2-1.3,0-1.2,.5-2.1-.3-.2-2-.2-5.3,.2-6.9h3.2c2.1,0,1.2,1,2.4,1,1.1,0,.8-.8,.9-1.9,.1-1.2,.5-1.3-.2-2.4-1.2-.3-.9,.7-2.6,.9-4,.3-4,.1-4-1.1v-1.8c0-1.2-.1-2.6,0-3.7,1.4,0,5.3-.3,6.3,.4,.8,.6,.5,1.4,1.3,1.6,.5,.1,.9,0,1-.7,1-5.3-2.3-3.9-4.5-3.7-.9,0-1.3-.2-2.2-.1l-7.3,.3c-.1,1.6,0,1.4,.7,2.3,1.2,1.6,.4,10.8,.6,13.8,.3,3.9-1.1,1.4-1,4.5Z"
     id="path16" />
  <path
     class="b"
     d="M128.8,177.01c.2,.9,.4,.7,.8,1.1,.7,.6,1.4,2.9,1.7,3.9,.2,.8,.5,.8,1.2,3.1,.6,1.9,1.4,3,1.5,3.7,.2,1-.1,.6,.4,1.4l1.5,3.8c.2,.6,.2,.9,.4,1.4,.4,1.2,.5,1.6,1.9,1.8,.4-.4,.9-.8,1-1.3,.3-.9-.2,.4,.2-.8,.2-.6,.1-.3,.4-.8l2.5-6.3s0-.1,.1-.1c0,0,0-.1,.1-.2,.3-.7,1.1-3.3,1.8-3.5,.6,.7,2.4,5.6,2.8,6.7,1.1,2.6,.1,0,.9,2.9l.9,2.6c.2,.4,.3,.4,.6,.7,2.3,0,1.9-1.7,3.1-4.8,.6-1.5,1.5-3.2,1.9-4.8,.1-.3,.1-.5,.2-.8l1.6-4c.6-1.3,.8-2.8,1.6-4.3,.6-1,1.2-1.2,1-2.2s-1-.7-2.7-.7c-1.2,0-3.5,0-1.9,2,1,1.3,0,3.3-.8,5.5l-2.6,6.7c-.1-.2-.2-.4-.4-.6l-3.1-8.2s0-.1-.1-.1c-.6-1.3-1-1.3-.3-2.8,.2-.5,.4-.7,.3-1.3-.3-1.3-2.5-.8-3.8-.8-2.1,0-1.5-.3-3.3,.4-.1,1.7,.1,1.1,2.3,3,.1,0,.8,0,.3,1.6l-2.3,5.4c-.1,.4-.1,.5-.3,.9l-.3,.5-.1,.1c-.4,.9-.2,1.5-1.2,1.7l-3.7-10.2c-.4-1.8,.5-1.4,.7-2.5,.2-1.5-1.3-1.1-2.7-1-2.8,0-4.4-.5-4.1,1.2Z"
     id="path17" />
  <path
     class="b"
     d="M388.8,189.71c-1.3-.1-3-.2-4.1-.2l-16.2,.2c-1,0-1.6-.2-2.8-.2h-21.1c-7.4,.2-16,.2-23.2,.2-1,0-2.1,.1-2.1,1.3s1,1,2.2,1.2l6,.3c4.1-.2,6.6-.4,11.1-.2l3.4,.2h24.5c4.6,0,21.4,.5,24-.6,.7-1.6-.1-2.1-1.7-2.2Z"
     id="path18" />
  <path
     class="b"
     d="M72,189.81l-47.2-.2c-2.1,0-4.5,.2-5.8,.1-.9-.1-.9,.1-1.9,.1-1.6,0-2-.1-3.4,.4-.2,.5-.3,.8-.4,1.4,1.6,1.1,1.4,.4,3.5,.6,1.3,.2,2.6,.2,4.1,.2H63.1c1.6,0,2.7,.1,4,.2,1.7,.1,5.2-.4,7.9-.2,.8,.1,1.3,0,1.9-.2,1.4-.5,.4-.3,1.2-1-.6-2.4-3-1.4-6.1-1.4Z"
     id="path19" />
  <path
     class="b"
     d="M289.7,68.41l.1,.1c1.8,1,4.8,.5,5.8-1.4,2-4.1-.8-7.8-4.7-6.7-2.5,.7-3.6,2.7-3,5.2,.4,1.6,.3,1.9,1.8,2.8Z"
     id="path20" />
  <path
     class="b"
     d="M100.7,61.51c-1-1.4-3.1-1.4-4.5-1.1-.9,.2-1,0-1.8,.7l-.6,.7c-1.3,2-1,5.2,1.4,6.4,1.2,.6,2.3,.7,3.8,.4,3.2-.7,3.3-5.1,2.1-6.5-.1-.2-.3-.4-.4-.6Z"
     id="path21" />
</svg>
